# AST/ASF file generated using VICON BodyLanguage
# -----------------------------------------------
:version 1.10
:name VICON
:units
  mass 1.0
  length 0.45
  angle deg
:documentation
   .ast/.asf automatically generated from VICON data using
   VICON BodyBuilder and BodyLanguage model FoxedUp or BRILLIANT.MOD
:root
   order TX TY TZ RX RY RZ
   axis XYZ
   position 0 0 0  
   orientation 0 0 0 
:bonedata
  begin
     id 1 
     name lhipjoint
     direction 0.573633 -0.743009 0.344793 
     length 2.46257 
     axis 0 0 0  XYZ
  end
  begin
     id 2 
     name lfemur
     direction 0.34202 -0.939693 0  
     length 7.3842  
     axis 0 0 20  XYZ
    dof rx ry rz
    limits (-160.0 20.0)
           (-70.0 70.0)
           (-60.0 70.0)
  end
  begin
     id 3 
     name ltibia
     direction 0.34202 -0.939693 0   
     length 7.50407   
     axis 0 0 20   XYZ
    dof rx
    limits (-10.0 170.0)
  end
  begin
     id 4 
     name lfoot
     direction 0.110749 -0.304281 0.946123   
     length 1.95925   
     axis -90 7.62852e-016 20   XYZ
    dof rx rz
    limits (-45.0 90.0)
           (-70.0 20.0)
  end
  begin
     id 5 
     name ltoes
     direction 1.53554e-011 -4.21843e-011 1   
     length 0.978318   
     axis -90 7.62852e-016 20   XYZ
    dof rx
    limits (-90.0 20.0)
  end
  begin
     id 6 
     name rhipjoint
     direction -0.488109 -0.791693 0.367385   
     length 2.31113  
     axis 0 0 0  XYZ 
  end
  begin
     id 7 
     name rfemur
     direction -0.34202 -0.939693 0   
     length 7.40965   
     axis 0 0 -20   XYZ
    dof rx ry rz
    limits (-160.0 20.0)
           (-70.0 70.0)
           (-70.0 60.0)
  end
  begin
     id 8 
     name rtibia
     direction -0.34202 -0.939693 0   
     length 7.55548   
     axis 0 0 -20   XYZ
    dof rx
    limits (-10.0 170.0)
 end
 begin
     id 9 
     name rfoot
     direction -0.127594 -0.350561 0.927808   
     length 2.07199  
     axis -90 -7.62852e-016 -20   XYZ
    dof rx rz
    limits (-45.0 90.0)
           (-20.0 70.0)
  end
  begin
     id 10 
     name rtoes
     direction -1.53542e-011 -4.21909e-011 1   
     length 1.02667   
     axis -90 -7.62852e-016 -20   XYZ
    dof rx
    limits (-90.0 20.0)
  end
  begin
     id 11 
     name lowerback
     direction -0.0103342 0.997298 -0.0727278   
     length 2.02836   
     axis 0 0 0   XYZ
    dof rx ry rz
    limits (-20.0 45.0)
           (-30.0 30.0)
           (-30.0 30.0)
  end
  begin
     id 12 
     name upperback
     direction 0.0171146 0.999786 -0.011606   
     length 2.03179   
     axis 0 0 0   XYZ
    dof rx ry rz
    limits (-20.0 45.0)
           (-30.0 30.0)
           (-30.0 30.0)
  end
  begin
     id 13 
     name thorax
     direction 0.0216927 0.999513 0.0224343   
     length 2.03882   
     axis 0 0 0   XYZ
    dof rx ry rz
    limits (-20.0 45.0)
           (-30.0 30.0)
           (-30.0 30.0)
  end
  begin
     id 14 
     name lowerneck
     direction 0.000989287 0.993907 0.110221   
     length 1.75428   
     axis 0 0 0   XYZ
    dof rx ry rz
    limits (-20.0 45.0)
           (-30.0 30.0)
           (-30.0 30.0)
  end
  begin
     id 15 
     name upperneck
     direction -0.0172474 0.994813 -0.100253   
     length 1.77058   
     axis 0 0 0   XYZ
    dof rx ry rz
    limits (-20.0 45.0)
           (-30.0 30.0)
           (-30.0 30.0)
  end
  begin
     id 16
     name head
     direction -0.00486455 0.99894 -0.0457663  
     length 1.77427  
     axis 0 0 0   XYZ
    dof rx ry rz
    limits (-20.0 45.0)
           (-30.0 30.0)
           (-30.0 30.0)
  end
  begin
     id 17 
     name lclavicle
     direction 0.927314 0.333734 -0.169441  
     length 3.97584  
     axis 0 0 0   XYZ
    dof ry rz
    limits (-20.0 10.0)
           (0.0 20.0)
  end
  begin
     id 18 
     name lhumerus
     direction 1 -4.48965e-011 -3.25313e-028   
     length 4.76468   
     axis 180 -30 -90   XYZ
    dof rx ry rz
    limits (-60.0 90.0)
           (-90.0 90.0)
           (-90.0 90.0)
  end
  begin
     id 19
     name lradius
     direction 1 -4.48969e-011 -2.8465e-028   
     length 3.52712   
     axis -180 -30 -90   XYZ
    dof rx
    limits (-10.0 170.0)
  end
  begin
     id 20
     name lwrist
     direction 1 -4.4896e-011 -7.78665e-028   
     length 1.76356   
     axis 1.91374e-015 90 90   XYZ
    dof ry
    limits (-180.0 0.0)
 end
  begin
     id 21 
     name lhand
     direction 1 -4.48959e-011 -1.55733e-027   
     length 0.859564   
     axis 9.9371e-016 90 90   XYZ
    dof rx rz
    limits (-90.0 90.0)
           (-45.0 45.0)
  end
  begin
     id 22 
     name lfingers
     direction 1 -4.48965e-011 -3.11466e-027   
     length 0.693002   
     axis 1.98742e-015 90 90   XYZ
    dof rx
    limits (0.0 90.0)
  end
  begin
     id 23
     name lthumb
     direction 0.707107 -6.34948e-011 0.707107   
     length 0.995017   
     axis -90 45 2.85299e-015   XYZ
    dof rx rz
    limits (-45.0 45.0)
           (-45.0 45.0)
  end
  begin
     id 24 
     name rclavicle
     direction -0.899388 0.348209 -0.264294   
     length 3.68366  
     axis 0 0 0   XYZ 
    dof ry rz
    limits (-10.0 20.0)
           (-20.0 0.0)
  end
  begin
     id 25 
     name rhumerus
     direction -1 -4.48965e-011 -3.01536e-027  
     length 4.90577   
     axis 180 30 90   XYZ
    dof rx ry rz
    limits (-90.0 60.0)
           (-90.0 90.0)
           (-90.0 90.0)
  end
  begin
     id 26 
     name rradius
     direction -1 -4.48966e-011 3.93291e-027   
     length 3.42692   
     axis -180 30 90   XYZ
    dof rx
    limits (-10.0 170.0)
  end
  begin
     id 27 
     name rwrist
     direction -1 -4.48969e-011 -7.78665e-028   
     length 1.71346   
     axis 1.91374e-015 -90 -90   XYZ
    dof ry
    limits (-180.0 0.0)
  end
  begin
     id 28
     name rhand
     direction -1 -4.48967e-011 -1.55733e-027   
     length 0.740957   
     axis 9.9371e-016 -90 -90   XYZ
    dof rx rz
    limits (-90.0 90.0)
           (-45.0 45.0)
  end
  begin
     id 29
     name rfingers
     direction -1 -4.48949e-011 -3.11466e-027   
     length 0.597378   
     axis 1.98742e-015 -90 -90   XYZ
    dof rx
    limits (0.0 90.0)
  end
  begin
     id 30
     name rthumb
     direction -0.707107 -6.34931e-011 0.707107   
     length 0.857719   
     axis -90 -45 -2.85299e-015   XYZ
    dof rx rz
    limits (-45.0 45.0)
           (-45.0 45.0)
  end
:hierarchy
  begin
    root lhipjoint rhipjoint lowerback
    lhipjoint lfemur
    lfemur ltibia
    ltibia lfoot
    lfoot ltoes
    rhipjoint rfemur
    rfemur rtibia
    rtibia rfoot
    rfoot rtoes
    lowerback upperback
    upperback thorax
    thorax lowerneck lclavicle rclavicle
    lowerneck upperneck
    upperneck head
    lclavicle lhumerus
    lhumerus lradius
    lradius lwrist
    lwrist lhand lthumb
    lhand lfingers
    rclavicle rhumerus
    rhumerus rradius
    rradius rwrist
    rwrist rhand rthumb
    rhand rfingers
  end

#!OML:ASF E:\I on waltz\AllaLogoMonkeySwing\Project 1\Capture day 1\Session 1\Subject1.ASF
:FULLY-SPECIFIED
:DEGREES
114
root 1.11435 6.87485 -1.82748 -25.7692 0.110812 0.788905
lowerback 46.0194 2.29146 -1.42712
upperback 12.5673 2.25434 0.937928
thorax -7.08611 1.00935 0.773204
lowerneck -6.08519 0.198698 -2.67178
upperneck 0.200998 0.446405 0.542323
head 1.0728 0.227229 0.627563
rclavicle -1.5704e-014 1.49089e-014
rhumerus -12.3038 17.5056 -70.7097
rradius 104.094
rwrist 9.07593
rhand -17.8242 -30.1693
rfingers 7.12502
rthumb 8.43995 -59.9806
lclavicle -1.5704e-014 1.49089e-014
lhumerus -18.2054 -15.8288 90.0044
lradius 108.886
lwrist -23.1703
lhand -21.7166 -17.4112
lfingers 7.12502
lthumb 4.68247 12.5171
rfemur -90.4415 -29.3607 24.8578
rtibia 132.477
rfoot -20.092 3.05885
rtoes 22.1328
lfemur -86.7012 33.2279 -17.9451
ltibia 132.562
lfoot -30.4764 -21.1352
ltoes -12.4887
115
root 1.11897 6.85407 -1.85436 -26.5488 0.0752651 0.942582
lowerback 45.2616 2.17812 -1.48259
upperback 12.5922 2.11833 1.02613
thorax -6.87091 0.942617 0.964788
lowerneck -6.2978 0.366794 -2.65851
upperneck 0.29845 0.684082 0.186711
head 1.13642 0.339108 0.522777
rclavicle -1.26228e-014 1.53064e-014
rhumerus -11.1419 17.7369 -70.935
rradius 102.385
rwrist 8.32618
rhand -17.2553 -29.8256
rfingers 7.12502
rthumb 8.98903 -59.6141
lclavicle -1.26228e-014 1.53064e-014
lhumerus -18.053 -14.7688 90.5961
lradius 107.538
lwrist -22.4977
lhand -21.4062 -16.6622
lfingers 7.12502
lthumb 4.98212 13.2593
rfemur -89.4415 -29.6647 24.3997
rtibia 132.438
rfoot -20.3224 3.18168
rtoes 22.4422
lfemur -85.787 33.1072 -17.6069
ltibia 132.496
lfoot -30.4088 -21.004
ltoes -12.7327
116
root 1.12394 6.83514 -1.87931 -27.3079 0.0402293 1.10005
lowerback 44.5806 2.0762 -1.53208
upperback 12.5709 1.99379 1.087
thorax -6.72037 0.882182 1.11634
lowerneck -6.56377 0.57171 -2.5266
upperneck 0.461806 0.96446 -0.152366
head 1.23142 0.471574 0.405658
rclavicle -2.28602e-015 5.96354e-016
rhumerus -10.1237 17.8514 -71.2399
rradius 100.787
rwrist 7.98949
rhand -16.4516 -29.5513
rfingers 7.12502
rthumb 9.76452 -59.3049
lclavicle -2.28602e-015 5.96354e-016
lhumerus -17.8805 -13.9937 90.9844
lradius 106.191
lwrist -22.1188
lhand -20.9904 -15.8857
lfingers 7.12502
lthumb 5.38364 14.0259
rfemur -88.5452 -29.9023 23.9222
rtibia 132.387
rfoot -20.4219 3.27744
rtoes 22.4596
lfemur -84.8728 32.9913 -17.2888
ltibia 132.43
lfoot -30.2391 -20.9606
ltoes -12.4283
117
root 1.1237 6.82198 -1.90749 -28.0175 0.00901238 0.963053
lowerback 43.9485 1.87936 -1.36997
upperback 12.5132 1.84901 1.20998
thorax -6.61639 0.813349 1.23237
lowerneck -6.83124 0.795855 -2.35509
upperneck 0.632262 1.26665 -0.444287
head 1.3309 0.615185 0.297953
rclavicle 8.94531e-016 -7.95139e-016
rhumerus -9.23947 18.0284 -71.6813
rradius 99.225
rwrist 7.92179
rhand -15.9992 -29.2947
rfingers 7.12502
rthumb 10.2009 -59.0274
lclavicle 8.94531e-016 -7.95139e-016
lhumerus -17.6947 -13.4041 91.2266
lradius 104.918
lwrist -22.0567
lhand -20.5024 -15.1227
lfingers 7.12502
lthumb 5.8548 14.7764
rfemur -87.7447 -29.7742 23.8178
rtibia 132.129
rfoot -20.1838 2.93786
rtoes 21.527
lfemur -84.1024 32.905 -16.7044
ltibia 132.353
lfoot -30.059 -21.0592
ltoes -12.1716
118
root 1.11951 6.81604 -1.94474 -28.6215 -0.157675 0.517906
lowerback 43.3159 1.60987 -0.952906
upperback 12.424 1.72422 1.40458
thorax -6.54146 0.755266 1.28416
lowerneck -7.14618 1.01008 -2.13604
upperneck 0.827266 1.55697 -0.86292
head 1.45027 0.749223 0.143549
rclavicle 8.24956e-015 1.59028e-015
rhumerus -8.42074 18.182 -72.2075
rradius 97.7321
rwrist 7.93446
rhand -15.6635 -29.0325
rfingers 7.12502
rthumb 10.5247 -58.749
lclavicle 8.24956e-015 1.59028e-015
lhumerus -17.4937 -12.8904 91.4144
lradius 103.661
lwrist -22.0963
lhand -20.158 -14.7836
lfingers 7.12502
lthumb 6.18728 15.1061
rfemur -87.2378 -28.7582 24.2196
rtibia 131.382
rfoot -19.1233 2.07705
rtoes 20.385
lfemur -83.5482 33.0166 -15.83
ltibia 132.235
lfoot -29.8968 -21.3286
ltoes -12.1204
119
root 1.12063 6.80993 -1.98308 -29.2633 -0.475493 0.192561
lowerback 42.7892 1.40488 -0.584536
upperback 12.3467 1.64385 1.5626
thorax -6.47848 0.717684 1.30108
lowerneck -7.54462 1.21528 -1.87672
upperneck 1.07506 1.83891 -1.3967
head 1.60652 0.874449 -0.052615
rclavicle 1.37161e-014 1.15295e-014
rhumerus -7.60777 18.2422 -72.7703
rradius 96.2869
rwrist 7.89381
rhand -15.2183 -28.7011
rfingers 7.12502
rthumb 10.9542 -58.3954
lclavicle 1.37161e-014 1.15295e-014
lhumerus -17.3448 -12.3477 91.6265
lradius 102.45
lwrist -22.1174
lhand -19.8456 -14.8813
lfingers 7.12502
lthumb 6.48889 14.9993
rfemur -87.0015 -28.272 23.9941
rtibia 131.467
rfoot -18.3551 3.64383
rtoes 27.2145
lfemur -82.8605 33.3455 -14.9891
ltibia 132.112
lfoot -29.8243 -21.5936
ltoes -12.0101
